<mxfile host="Electron" modified="2024-04-12T18:48:28.294Z" agent="Mozilla/5.0 (Windows NT 10.0; Win64; x64) AppleWebKit/537.36 (KHTML, like Gecko) draw.io/24.1.0 Chrome/120.0.6099.109 Electron/28.1.0 Safari/537.36" etag="oZPcHhqt9jh7VkX9wm67" version="24.1.0" type="device" pages="3">
  <diagram name="CasosDeUso" id="M7xr3wcyRH4fqapJd69M">
    <mxGraphModel dx="1050" dy="629" grid="0" gridSize="10" guides="1" tooltips="1" connect="1" arrows="1" fold="1" page="0" pageScale="1" pageWidth="827" pageHeight="1169" background="none" math="0" shadow="0">
      <root>
        <mxCell id="0" />
        <mxCell id="1" parent="0" />
        <mxCell id="8EH5IGFYuP0Oyn6NS1UA-30" value="" style="rounded=0;whiteSpace=wrap;html=1;fillColor=none;strokeColor=#FFFFFF;strokeWidth=4;" parent="1" vertex="1">
          <mxGeometry x="206" y="8" width="475" height="515" as="geometry" />
        </mxCell>
        <mxCell id="8EH5IGFYuP0Oyn6NS1UA-1" value="Registro de orden" style="ellipse;whiteSpace=wrap;html=1;" parent="1" vertex="1">
          <mxGeometry x="252" y="157" width="120" height="80" as="geometry" />
        </mxCell>
        <mxCell id="8EH5IGFYuP0Oyn6NS1UA-2" value="Toma de orden" style="ellipse;whiteSpace=wrap;html=1;" parent="1" vertex="1">
          <mxGeometry x="427" y="163" width="120" height="80" as="geometry" />
        </mxCell>
        <mxCell id="8EH5IGFYuP0Oyn6NS1UA-9" value="" style="rounded=0;orthogonalLoop=1;jettySize=auto;html=1;dashed=1;" parent="1" source="8EH5IGFYuP0Oyn6NS1UA-3" target="8EH5IGFYuP0Oyn6NS1UA-4" edge="1">
          <mxGeometry relative="1" as="geometry" />
        </mxCell>
        <mxCell id="8EH5IGFYuP0Oyn6NS1UA-3" value="Generación de factura" style="ellipse;whiteSpace=wrap;html=1;" parent="1" vertex="1">
          <mxGeometry x="500" y="405" width="120" height="80" as="geometry" />
        </mxCell>
        <mxCell id="8EH5IGFYuP0Oyn6NS1UA-4" value="Notificación de factura" style="ellipse;whiteSpace=wrap;html=1;" parent="1" vertex="1">
          <mxGeometry x="300" y="409" width="120" height="80" as="geometry" />
        </mxCell>
        <mxCell id="8EH5IGFYuP0Oyn6NS1UA-13" value="Cliente" style="shape=umlActor;verticalLabelPosition=bottom;verticalAlign=top;html=1;outlineConnect=0;" parent="1" vertex="1">
          <mxGeometry x="128" y="127" width="30" height="60" as="geometry" />
        </mxCell>
        <mxCell id="8EH5IGFYuP0Oyn6NS1UA-19" value="Mesero" style="shape=umlActor;verticalLabelPosition=bottom;verticalAlign=top;html=1;outlineConnect=0;" parent="1" vertex="1">
          <mxGeometry x="759" y="114" width="30" height="60" as="geometry" />
        </mxCell>
        <mxCell id="8EH5IGFYuP0Oyn6NS1UA-20" value="" style="endArrow=none;html=1;rounded=0;entryX=0.5;entryY=0.5;entryDx=0;entryDy=0;entryPerimeter=0;strokeColor=#FFFF00;" parent="1" source="8EH5IGFYuP0Oyn6NS1UA-2" target="8EH5IGFYuP0Oyn6NS1UA-19" edge="1">
          <mxGeometry width="50" height="50" relative="1" as="geometry">
            <mxPoint x="558" y="275" as="sourcePoint" />
            <mxPoint x="608" y="225" as="targetPoint" />
          </mxGeometry>
        </mxCell>
        <mxCell id="8EH5IGFYuP0Oyn6NS1UA-23" value="Área de facturación" style="shape=umlActor;verticalLabelPosition=bottom;verticalAlign=top;html=1;outlineConnect=0;" parent="1" vertex="1">
          <mxGeometry x="743" y="299" width="30" height="60" as="geometry" />
        </mxCell>
        <mxCell id="8EH5IGFYuP0Oyn6NS1UA-32" value="" style="endArrow=classic;html=1;rounded=0;dashed=1;dashPattern=8 8;exitX=0;exitY=0.5;exitDx=0;exitDy=0;entryX=1;entryY=0.5;entryDx=0;entryDy=0;" parent="1" source="8EH5IGFYuP0Oyn6NS1UA-2" target="8EH5IGFYuP0Oyn6NS1UA-1" edge="1">
          <mxGeometry width="50" height="50" relative="1" as="geometry">
            <mxPoint x="478" y="160" as="sourcePoint" />
            <mxPoint x="350.1164407084045" y="148.31953574457452" as="targetPoint" />
          </mxGeometry>
        </mxCell>
        <mxCell id="8EH5IGFYuP0Oyn6NS1UA-33" value="Orden de pedido" style="ellipse;whiteSpace=wrap;html=1;" parent="1" vertex="1">
          <mxGeometry x="217" y="57" width="120" height="80" as="geometry" />
        </mxCell>
        <mxCell id="EemuT5XTlh5xnBEi4JDt-3" value="Pago de la orden" style="ellipse;whiteSpace=wrap;html=1;" parent="1" vertex="1">
          <mxGeometry x="414" y="25" width="120" height="80" as="geometry" />
        </mxCell>
        <mxCell id="EemuT5XTlh5xnBEi4JDt-7" value="" style="endArrow=none;html=1;rounded=0;exitX=0.5;exitY=0.5;exitDx=0;exitDy=0;exitPerimeter=0;strokeColor=#FF8000;" parent="1" source="8EH5IGFYuP0Oyn6NS1UA-13" target="8EH5IGFYuP0Oyn6NS1UA-33" edge="1">
          <mxGeometry width="50" height="50" relative="1" as="geometry">
            <mxPoint x="33" y="167" as="sourcePoint" />
            <mxPoint x="281" y="258" as="targetPoint" />
          </mxGeometry>
        </mxCell>
        <mxCell id="EemuT5XTlh5xnBEi4JDt-9" value="" style="endArrow=none;html=1;rounded=0;entryX=0.5;entryY=0.5;entryDx=0;entryDy=0;entryPerimeter=0;strokeColor=#9933FF;" parent="1" source="8EH5IGFYuP0Oyn6NS1UA-3" target="8EH5IGFYuP0Oyn6NS1UA-23" edge="1">
          <mxGeometry width="50" height="50" relative="1" as="geometry">
            <mxPoint x="383" y="393" as="sourcePoint" />
            <mxPoint x="768" y="339" as="targetPoint" />
          </mxGeometry>
        </mxCell>
        <mxCell id="EemuT5XTlh5xnBEi4JDt-10" value="" style="endArrow=classic;html=1;rounded=0;dashed=1;dashPattern=8 8;" parent="1" source="8EH5IGFYuP0Oyn6NS1UA-33" target="EemuT5XTlh5xnBEi4JDt-3" edge="1">
          <mxGeometry width="50" height="50" relative="1" as="geometry">
            <mxPoint x="394" y="278" as="sourcePoint" />
            <mxPoint x="446" y="279" as="targetPoint" />
          </mxGeometry>
        </mxCell>
        <mxCell id="ghJok0T495TV72HKHVQO-1" value="" style="endArrow=none;html=1;rounded=0;entryX=0.5;entryY=0.5;entryDx=0;entryDy=0;entryPerimeter=0;strokeColor=#FFFF00;exitX=1;exitY=0.5;exitDx=0;exitDy=0;" parent="1" source="JSY6znA_VenreNKL_Xk7-1" target="8EH5IGFYuP0Oyn6NS1UA-19" edge="1">
          <mxGeometry width="50" height="50" relative="1" as="geometry">
            <mxPoint x="556" y="257" as="sourcePoint" />
            <mxPoint x="784" y="154" as="targetPoint" />
          </mxGeometry>
        </mxCell>
        <mxCell id="ubxx2xAviYEVsf6ttLy--1" value="include" style="text;html=1;align=center;verticalAlign=middle;resizable=0;points=[];autosize=1;strokeColor=none;fillColor=none;" parent="1" vertex="1">
          <mxGeometry x="337" y="46" width="55" height="26" as="geometry" />
        </mxCell>
        <mxCell id="ubxx2xAviYEVsf6ttLy--10" value="include" style="text;html=1;align=center;verticalAlign=middle;resizable=0;points=[];autosize=1;strokeColor=none;fillColor=none;" parent="1" vertex="1">
          <mxGeometry x="437" y="412" width="55" height="26" as="geometry" />
        </mxCell>
        <mxCell id="JSY6znA_VenreNKL_Xk7-1" value="Entrega de orden" style="ellipse;whiteSpace=wrap;html=1;" parent="1" vertex="1">
          <mxGeometry x="446" y="270" width="120" height="80" as="geometry" />
        </mxCell>
        <mxCell id="XfkK6qUMOFtFPnjG5ICN-1" value="include" style="text;html=1;align=center;verticalAlign=middle;resizable=0;points=[];autosize=1;strokeColor=none;fillColor=none;" vertex="1" parent="1">
          <mxGeometry x="375" y="163" width="55" height="26" as="geometry" />
        </mxCell>
      </root>
    </mxGraphModel>
  </diagram>
  <diagram id="-bg8EbSSZk-wTPE3BFo6" name="Actividad">
    <mxGraphModel dx="1450" dy="629" grid="0" gridSize="10" guides="1" tooltips="1" connect="1" arrows="1" fold="1" page="0" pageScale="1" pageWidth="1169" pageHeight="827" math="0" shadow="0">
      <root>
        <mxCell id="0" />
        <mxCell id="1" parent="0" />
        <mxCell id="DEKgCuAefPtDbF7lHRT2-7" value="" style="rounded=0;whiteSpace=wrap;html=1;labelBackgroundColor=none;" parent="1" vertex="1">
          <mxGeometry x="324" y="62" width="168" height="1209" as="geometry" />
        </mxCell>
        <mxCell id="DEKgCuAefPtDbF7lHRT2-2" value="" style="rounded=0;whiteSpace=wrap;html=1;labelBackgroundColor=none;" parent="1" vertex="1">
          <mxGeometry x="156" y="62" width="168" height="1209" as="geometry" />
        </mxCell>
        <mxCell id="DEKgCuAefPtDbF7lHRT2-1" value="" style="rounded=0;whiteSpace=wrap;html=1;labelBackgroundColor=none;" parent="1" vertex="1">
          <mxGeometry x="-12" y="62" width="168" height="1209" as="geometry" />
        </mxCell>
        <mxCell id="HawwJjXSaqNLG4ZX-L9v-1" value="Cliente" style="shape=umlActor;verticalLabelPosition=bottom;verticalAlign=top;html=1;outlineConnect=0;align=center;fontSize=15;" parent="1" vertex="1">
          <mxGeometry x="63" y="80" width="30" height="60" as="geometry" />
        </mxCell>
        <mxCell id="HawwJjXSaqNLG4ZX-L9v-2" value="Empleado" style="shape=umlActor;verticalLabelPosition=bottom;verticalAlign=top;html=1;outlineConnect=0;align=center;fontSize=15;" parent="1" vertex="1">
          <mxGeometry x="225" y="80" width="30" height="60" as="geometry" />
        </mxCell>
        <mxCell id="HawwJjXSaqNLG4ZX-L9v-5" value="Ordena un pedido" style="rounded=0;whiteSpace=wrap;html=1;fontSize=15;align=center;" parent="1" vertex="1">
          <mxGeometry x="26.5" y="269" width="103" height="48" as="geometry" />
        </mxCell>
        <mxCell id="HawwJjXSaqNLG4ZX-L9v-10" value="" style="endArrow=classic;html=1;rounded=0;entryX=0.5;entryY=0;entryDx=0;entryDy=0;exitX=0.499;exitY=1.035;exitDx=0;exitDy=0;exitPerimeter=0;align=center;edgeStyle=orthogonalEdgeStyle;fontSize=15;" parent="1" source="HawwJjXSaqNLG4ZX-L9v-5" target="BiClbTwsQ1hXXa7gSCtD-1" edge="1">
          <mxGeometry width="50" height="50" relative="1" as="geometry">
            <mxPoint x="7" y="402" as="sourcePoint" />
            <mxPoint x="57" y="352" as="targetPoint" />
            <Array as="points">
              <mxPoint x="78" y="341" />
              <mxPoint x="251" y="341" />
            </Array>
          </mxGeometry>
        </mxCell>
        <mxCell id="HawwJjXSaqNLG4ZX-L9v-12" value="Inicio" style="ellipse;whiteSpace=wrap;html=1;align=center;fontSize=15;" parent="1" vertex="1">
          <mxGeometry x="43.21" y="196" width="65.58" height="47" as="geometry" />
        </mxCell>
        <mxCell id="HawwJjXSaqNLG4ZX-L9v-13" value="" style="endArrow=classic;html=1;rounded=0;entryX=0.481;entryY=0.006;entryDx=0;entryDy=0;entryPerimeter=0;exitX=0.51;exitY=1.034;exitDx=0;exitDy=0;exitPerimeter=0;align=center;fontSize=15;" parent="1" source="HawwJjXSaqNLG4ZX-L9v-12" target="HawwJjXSaqNLG4ZX-L9v-5" edge="1">
          <mxGeometry width="50" height="50" relative="1" as="geometry">
            <mxPoint x="89" y="338" as="sourcePoint" />
            <mxPoint x="89" y="370" as="targetPoint" />
          </mxGeometry>
        </mxCell>
        <mxCell id="BiClbTwsQ1hXXa7gSCtD-1" value="Toma la orden del cliente" style="rounded=0;whiteSpace=wrap;html=1;fontSize=15;align=center;" parent="1" vertex="1">
          <mxGeometry x="181" y="372" width="139.5" height="53" as="geometry" />
        </mxCell>
        <mxCell id="xvkjPii-5fU7fH1WjLS0-1" value="Realiza el pago de la orden" style="rounded=0;whiteSpace=wrap;html=1;fontSize=15;align=center;" parent="1" vertex="1">
          <mxGeometry x="2.25" y="485" width="139.5" height="53.5" as="geometry" />
        </mxCell>
        <mxCell id="xvkjPii-5fU7fH1WjLS0-2" value="" style="endArrow=classic;html=1;rounded=0;entryX=0.5;entryY=0;entryDx=0;entryDy=0;exitX=0.5;exitY=1;exitDx=0;exitDy=0;align=center;edgeStyle=orthogonalEdgeStyle;fontSize=15;" parent="1" source="BiClbTwsQ1hXXa7gSCtD-1" target="xvkjPii-5fU7fH1WjLS0-1" edge="1">
          <mxGeometry width="50" height="50" relative="1" as="geometry">
            <mxPoint x="88" y="328" as="sourcePoint" />
            <mxPoint x="251" y="384" as="targetPoint" />
          </mxGeometry>
        </mxCell>
        <mxCell id="D7wbWra9kauXvtd11d8C-1" value="Registra la orden en el sistema" style="rounded=0;whiteSpace=wrap;html=1;fontSize=15;align=center;" parent="1" vertex="1">
          <mxGeometry x="173.5" y="586" width="139.5" height="49.5" as="geometry" />
        </mxCell>
        <mxCell id="D7wbWra9kauXvtd11d8C-2" value="" style="endArrow=classic;html=1;rounded=0;entryX=0.5;entryY=0;entryDx=0;entryDy=0;exitX=0.5;exitY=1;exitDx=0;exitDy=0;align=center;edgeStyle=orthogonalEdgeStyle;fontSize=15;" parent="1" source="xvkjPii-5fU7fH1WjLS0-1" target="D7wbWra9kauXvtd11d8C-1" edge="1">
          <mxGeometry width="50" height="50" relative="1" as="geometry">
            <mxPoint x="251" y="422" as="sourcePoint" />
            <mxPoint x="86" y="464" as="targetPoint" />
          </mxGeometry>
        </mxCell>
        <mxCell id="O5jPrnbELdZbt1K0ptQS-1" value="Genera la factura" style="rounded=0;whiteSpace=wrap;html=1;fontSize=15;align=center;" parent="1" vertex="1">
          <mxGeometry x="343" y="711" width="139.5" height="38.5" as="geometry" />
        </mxCell>
        <mxCell id="xaGqrmXuIJB6IrG0UZe_-1" value="" style="endArrow=classic;html=1;rounded=0;entryX=0.5;entryY=0;entryDx=0;entryDy=0;exitX=0.5;exitY=1;exitDx=0;exitDy=0;align=center;edgeStyle=orthogonalEdgeStyle;fontSize=15;" parent="1" source="D7wbWra9kauXvtd11d8C-1" target="O5jPrnbELdZbt1K0ptQS-1" edge="1">
          <mxGeometry width="50" height="50" relative="1" as="geometry">
            <mxPoint x="86" y="503" as="sourcePoint" />
            <mxPoint x="251" y="545" as="targetPoint" />
          </mxGeometry>
        </mxCell>
        <mxCell id="xaGqrmXuIJB6IrG0UZe_-2" value="" style="endArrow=classic;html=1;rounded=0;exitX=0.5;exitY=1;exitDx=0;exitDy=0;align=center;edgeStyle=orthogonalEdgeStyle;entryX=0.5;entryY=0;entryDx=0;entryDy=0;fontSize=15;" parent="1" source="O5jPrnbELdZbt1K0ptQS-1" target="xaGqrmXuIJB6IrG0UZe_-3" edge="1">
          <mxGeometry width="50" height="50" relative="1" as="geometry">
            <mxPoint x="251" y="584" as="sourcePoint" />
            <mxPoint x="543" y="703" as="targetPoint" />
          </mxGeometry>
        </mxCell>
        <mxCell id="xaGqrmXuIJB6IrG0UZe_-3" value="Recibe la factura por correo electrónico" style="rounded=0;whiteSpace=wrap;html=1;fontSize=15;align=center;" parent="1" vertex="1">
          <mxGeometry x="2.5" y="797" width="139.5" height="68.5" as="geometry" />
        </mxCell>
        <mxCell id="718BlRoZji5p5p7A8KLT-3" value="" style="endArrow=classic;html=1;rounded=0;exitX=0.5;exitY=1;exitDx=0;exitDy=0;align=center;edgeStyle=orthogonalEdgeStyle;entryX=0.5;entryY=0;entryDx=0;entryDy=0;fontSize=15;" parent="1" source="xaGqrmXuIJB6IrG0UZe_-3" target="vk_D2eKc7GZDCCosbuAC-1" edge="1">
          <mxGeometry width="50" height="50" relative="1" as="geometry">
            <mxPoint x="920.75" y="752.5" as="sourcePoint" />
            <mxPoint x="574.5" y="807" as="targetPoint" />
          </mxGeometry>
        </mxCell>
        <mxCell id="vk_D2eKc7GZDCCosbuAC-1" value="Recibe la notificación de orden lista para ser entregada&lt;div style=&quot;font-size: 15px;&quot;&gt;&lt;br style=&quot;font-size: 15px;&quot;&gt;&lt;/div&gt;&lt;div style=&quot;font-size: 15px;&quot;&gt;Entrega la orden al cliente&lt;/div&gt;" style="rounded=0;whiteSpace=wrap;html=1;fontSize=15;align=left;" parent="1" vertex="1">
          <mxGeometry x="167" y="903" width="146" height="142" as="geometry" />
        </mxCell>
        <mxCell id="vk_D2eKc7GZDCCosbuAC-3" value="Recibe la orden" style="rounded=0;whiteSpace=wrap;html=1;fontSize=15;align=center;" parent="1" vertex="1">
          <mxGeometry x="-7" y="1098" width="149" height="44" as="geometry" />
        </mxCell>
        <mxCell id="vk_D2eKc7GZDCCosbuAC-4" value="" style="endArrow=classic;html=1;rounded=0;exitX=0.5;exitY=1;exitDx=0;exitDy=0;align=center;edgeStyle=orthogonalEdgeStyle;entryX=0.5;entryY=0;entryDx=0;entryDy=0;fontSize=15;" parent="1" source="vk_D2eKc7GZDCCosbuAC-1" target="vk_D2eKc7GZDCCosbuAC-3" edge="1">
          <mxGeometry width="50" height="50" relative="1" as="geometry">
            <mxPoint x="43.21" y="1080" as="sourcePoint" />
            <mxPoint x="1027.96" y="1127.5" as="targetPoint" />
          </mxGeometry>
        </mxCell>
        <mxCell id="vk_D2eKc7GZDCCosbuAC-5" value="Inicio" style="ellipse;whiteSpace=wrap;html=1;align=center;fontSize=15;" parent="1" vertex="1">
          <mxGeometry x="34.71" y="1186" width="65.58" height="47" as="geometry" />
        </mxCell>
        <mxCell id="vk_D2eKc7GZDCCosbuAC-6" value="" style="endArrow=classic;html=1;rounded=0;exitX=0.5;exitY=1;exitDx=0;exitDy=0;align=center;edgeStyle=orthogonalEdgeStyle;entryX=0.5;entryY=0;entryDx=0;entryDy=0;fontSize=15;" parent="1" source="vk_D2eKc7GZDCCosbuAC-3" target="vk_D2eKc7GZDCCosbuAC-5" edge="1">
          <mxGeometry width="50" height="50" relative="1" as="geometry">
            <mxPoint x="246" y="1044" as="sourcePoint" />
            <mxPoint x="78" y="1108" as="targetPoint" />
          </mxGeometry>
        </mxCell>
        <mxCell id="DEKgCuAefPtDbF7lHRT2-6" value="Area de facturación" style="shape=umlActor;verticalLabelPosition=bottom;verticalAlign=top;html=1;outlineConnect=0;align=center;fontSize=15;" parent="1" vertex="1">
          <mxGeometry x="402" y="80" width="30" height="60" as="geometry" />
        </mxCell>
      </root>
    </mxGraphModel>
  </diagram>
  <diagram id="LtLmhWDH3AjJUgsN26qJ" name="Fishbone">
    <mxGraphModel dx="1505" dy="662" grid="0" gridSize="10" guides="1" tooltips="1" connect="1" arrows="1" fold="1" page="0" pageScale="1" pageWidth="1169" pageHeight="827" math="0" shadow="0">
      <root>
        <mxCell id="0" />
        <mxCell id="1" parent="0" />
        <mxCell id="f-u8kLZKbLNunlwttWpa-1" value="Toma de Orden" style="whiteSpace=wrap;strokeWidth=2;fontSize=14;fontFamily=Verdana;fontStyle=1" parent="1" vertex="1">
          <mxGeometry x="151.26999999999998" y="157" width="132.46" height="60" as="geometry" />
        </mxCell>
        <mxCell id="f-u8kLZKbLNunlwttWpa-2" value="Registro de Orden" style="whiteSpace=wrap;strokeWidth=2;fontSize=14;fontFamily=Verdana;fontStyle=1" parent="1" vertex="1">
          <mxGeometry x="9.998333333333235" y="552" width="120" height="60" as="geometry" />
        </mxCell>
        <mxCell id="f-u8kLZKbLNunlwttWpa-3" value="Servicio Al Cliente" style="whiteSpace=wrap;strokeWidth=3;fontSize=13;fontFamily=Verdana;" parent="1" vertex="1">
          <mxGeometry x="1045" y="350" width="120" height="60" as="geometry" />
        </mxCell>
        <mxCell id="f-u8kLZKbLNunlwttWpa-4" value="" style="edgeStyle=none;strokeWidth=4;fontSize=13;fontFamily=Verdana;" parent="1" target="f-u8kLZKbLNunlwttWpa-3" edge="1">
          <mxGeometry width="100" height="100" relative="1" as="geometry">
            <mxPoint x="209" y="376" as="sourcePoint" />
            <mxPoint x="329" y="326" as="targetPoint" />
          </mxGeometry>
        </mxCell>
        <mxCell id="f-u8kLZKbLNunlwttWpa-5" value="" style="edgeStyle=none;exitX=0.5;exitY=1;strokeWidth=3;fontSize=13;fontFamily=Verdana;" parent="1" source="f-u8kLZKbLNunlwttWpa-1" edge="1">
          <mxGeometry width="100" height="100" relative="1" as="geometry">
            <mxPoint x="282.72833333333324" y="281" as="sourcePoint" />
            <mxPoint x="313" y="373" as="targetPoint" />
          </mxGeometry>
        </mxCell>
        <mxCell id="f-u8kLZKbLNunlwttWpa-6" value="" style="edgeStyle=none;exitX=0.503;exitY=-0.012;strokeWidth=3;exitDx=0;exitDy=0;exitPerimeter=0;fontSize=13;fontFamily=Verdana;" parent="1" source="f-u8kLZKbLNunlwttWpa-2" edge="1">
          <mxGeometry width="100" height="100" relative="1" as="geometry">
            <mxPoint x="299.45833333333326" y="498" as="sourcePoint" />
            <mxPoint x="311" y="381" as="targetPoint" />
          </mxGeometry>
        </mxCell>
        <mxCell id="f-u8kLZKbLNunlwttWpa-7" value="" style="edgeStyle=none;endArrow=none;strokeWidth=2;fontSize=13;fontFamily=Verdana;" parent="1" source="f-u8kLZKbLNunlwttWpa-12" edge="1">
          <mxGeometry width="100" height="100" relative="1" as="geometry">
            <mxPoint x="42.24833333333323" y="261.47" as="sourcePoint" />
            <mxPoint x="241" y="257" as="targetPoint" />
          </mxGeometry>
        </mxCell>
        <mxCell id="f-u8kLZKbLNunlwttWpa-9" value="" style="edgeStyle=none;endArrow=none;strokeWidth=2;exitX=1.047;exitY=0.452;exitDx=0;exitDy=0;exitPerimeter=0;fontSize=13;fontFamily=Verdana;" parent="1" source="f-u8kLZKbLNunlwttWpa-13" edge="1">
          <mxGeometry width="100" height="100" relative="1" as="geometry">
            <mxPoint x="26.996719999999954" y="513.26" as="sourcePoint" />
            <mxPoint x="177" y="478" as="targetPoint" />
          </mxGeometry>
        </mxCell>
        <mxCell id="f-u8kLZKbLNunlwttWpa-11" value="" style="edgeStyle=none;endArrow=none;exitX=0.512;exitY=-0.13;exitDx=0;exitDy=0;exitPerimeter=0;fontSize=13;fontFamily=Verdana;" parent="1" source="f-u8kLZKbLNunlwttWpa-14" edge="1">
          <mxGeometry width="100" height="100" relative="1" as="geometry">
            <mxPoint x="20.285000000000068" y="280.672" as="sourcePoint" />
            <mxPoint x="176.73000000000002" y="259" as="targetPoint" />
          </mxGeometry>
        </mxCell>
        <mxCell id="f-u8kLZKbLNunlwttWpa-12" value="Capturar detalles&#xa;de la orden" style="text;spacingTop=-5;fontSize=13;align=center;verticalAlign=middle;points=[];fontStyle=1;fontFamily=Verdana;" parent="1" vertex="1">
          <mxGeometry x="9.999999999999986" y="242" width="131.46" height="38" as="geometry" />
        </mxCell>
        <mxCell id="f-u8kLZKbLNunlwttWpa-13" value="Registro de Orden" style="text;spacingTop=-5;fontSize=13;align=center;verticalAlign=middle;points=[];fontStyle=1;fontFamily=Verdana;" parent="1" vertex="1">
          <mxGeometry x="-119.46" y="460.5" width="151.46" height="25" as="geometry" />
        </mxCell>
        <mxCell id="f-u8kLZKbLNunlwttWpa-14" value="Asignar mesa y área&#xa;al cliente" style="text;spacingTop=-5;fontSize=13;align=center;verticalAlign=middle;points=[];fontFamily=Verdana;" parent="1" vertex="1">
          <mxGeometry x="106" y="294" width="150.73" height="44" as="geometry" />
        </mxCell>
        <mxCell id="f-u8kLZKbLNunlwttWpa-17" value="Facturación" style="whiteSpace=wrap;strokeWidth=2;fontSize=14;fontFamily=Verdana;fontStyle=1" parent="1" vertex="1">
          <mxGeometry x="444" y="190.99999999999994" width="120" height="60" as="geometry" />
        </mxCell>
        <mxCell id="f-u8kLZKbLNunlwttWpa-18" value="" style="edgeStyle=none;exitX=0.5;exitY=1;strokeWidth=3;fontSize=13;fontFamily=Verdana;" parent="1" source="f-u8kLZKbLNunlwttWpa-17" edge="1">
          <mxGeometry width="100" height="100" relative="1" as="geometry">
            <mxPoint x="600" y="294.9999999999999" as="sourcePoint" />
            <mxPoint x="536" y="376" as="targetPoint" />
          </mxGeometry>
        </mxCell>
        <mxCell id="f-u8kLZKbLNunlwttWpa-19" value="" style="edgeStyle=none;exitX=0.493;exitY=0.002;strokeWidth=3;exitDx=0;exitDy=0;exitPerimeter=0;fontSize=13;fontFamily=Verdana;" parent="1" source="f-u8kLZKbLNunlwttWpa-37" edge="1">
          <mxGeometry width="100" height="100" relative="1" as="geometry">
            <mxPoint x="758.0000000000001" y="499.99999999999994" as="sourcePoint" />
            <mxPoint x="818" y="379.99999999999994" as="targetPoint" />
          </mxGeometry>
        </mxCell>
        <mxCell id="f-u8kLZKbLNunlwttWpa-20" value="" style="edgeStyle=none;endArrow=none;strokeWidth=2;exitX=1.032;exitY=0.507;exitDx=0;exitDy=0;exitPerimeter=0;entryX=-0.069;entryY=0.511;entryDx=0;entryDy=0;entryPerimeter=0;fontSize=13;fontFamily=Verdana;" parent="1" source="f-u8kLZKbLNunlwttWpa-23" target="f-u8kLZKbLNunlwttWpa-26" edge="1">
          <mxGeometry width="100" height="100" relative="1" as="geometry">
            <mxPoint x="499.0000000000001" y="284.9999999999999" as="sourcePoint" />
            <mxPoint x="606" y="290" as="targetPoint" />
          </mxGeometry>
        </mxCell>
        <mxCell id="f-u8kLZKbLNunlwttWpa-23" value="Calcular total&#xa;de la orden" style="text;spacingTop=-5;fontSize=13;align=center;verticalAlign=middle;points=[];fontStyle=1;fontFamily=Verdana;" parent="1" vertex="1">
          <mxGeometry x="352" y="267" width="100" height="38" as="geometry" />
        </mxCell>
        <mxCell id="f-u8kLZKbLNunlwttWpa-26" value="Generar factura" style="text;spacingTop=-5;fontSize=13;align=center;verticalAlign=middle;points=[];fontStyle=1;fontFamily=Verdana;" parent="1" vertex="1">
          <mxGeometry x="568" y="275" width="115" height="22" as="geometry" />
        </mxCell>
        <mxCell id="f-u8kLZKbLNunlwttWpa-31" value="" style="edgeStyle=none;endArrow=none;exitX=0.486;exitY=1.139;exitDx=0;exitDy=0;exitPerimeter=0;fontSize=13;fontFamily=Verdana;" parent="1" source="f-u8kLZKbLNunlwttWpa-32" edge="1">
          <mxGeometry width="100" height="100" relative="1" as="geometry">
            <mxPoint x="17.948333333333224" y="538.5" as="sourcePoint" />
            <mxPoint x="142" y="474" as="targetPoint" />
          </mxGeometry>
        </mxCell>
        <mxCell id="f-u8kLZKbLNunlwttWpa-32" value="Guardar detalles de&#xa;la orden en el sistema" style="text;spacingTop=-5;fontSize=13;align=center;verticalAlign=middle;points=[];fontFamily=Verdana;" parent="1" vertex="1">
          <mxGeometry x="32" y="401" width="144" height="36" as="geometry" />
        </mxCell>
        <mxCell id="f-u8kLZKbLNunlwttWpa-37" value="Notificaciones" style="whiteSpace=wrap;strokeWidth=2;fontSize=14;fontFamily=Verdana;fontStyle=1" parent="1" vertex="1">
          <mxGeometry x="494" y="570.5" width="120" height="60" as="geometry" />
        </mxCell>
        <mxCell id="AFQ0ZIfKeyaH-kGczsP7-7" value="Enviar factura al&#xa;cliente por&#xa;correo electrónico" style="text;spacingTop=-5;fontSize=13;align=center;verticalAlign=middle;points=[];fontFamily=Verdana;" vertex="1" parent="1">
          <mxGeometry x="420" y="497.5" width="138" height="52" as="geometry" />
        </mxCell>
        <mxCell id="AFQ0ZIfKeyaH-kGczsP7-8" value="" style="edgeStyle=none;endArrow=none;exitX=0.48;exitY=-0.049;exitDx=0;exitDy=0;exitPerimeter=0;fontSize=13;fontFamily=Verdana;" edge="1" parent="1" source="AFQ0ZIfKeyaH-kGczsP7-7">
          <mxGeometry width="100" height="100" relative="1" as="geometry">
            <mxPoint x="732.9999999999999" y="460.4999999999998" as="sourcePoint" />
            <mxPoint x="565" y="477.5" as="targetPoint" />
          </mxGeometry>
        </mxCell>
        <mxCell id="AFQ0ZIfKeyaH-kGczsP7-9" value="Notificación&#xa;al Cliente" style="text;spacingTop=-5;fontSize=13;align=center;verticalAlign=middle;points=[];fontStyle=1;fontFamily=Verdana;" vertex="1" parent="1">
          <mxGeometry x="358" y="454" width="107" height="38" as="geometry" />
        </mxCell>
        <mxCell id="AFQ0ZIfKeyaH-kGczsP7-10" value="" style="edgeStyle=none;endArrow=none;strokeWidth=2;fontSize=13;fontFamily=Verdana;entryX=-0.007;entryY=0.513;entryDx=0;entryDy=0;entryPerimeter=0;exitX=1.042;exitY=0.528;exitDx=0;exitDy=0;exitPerimeter=0;" edge="1" parent="1" source="AFQ0ZIfKeyaH-kGczsP7-9" target="AFQ0ZIfKeyaH-kGczsP7-13">
          <mxGeometry width="100" height="100" relative="1" as="geometry">
            <mxPoint x="488" y="453" as="sourcePoint" />
            <mxPoint x="632.74" y="475.5" as="targetPoint" />
          </mxGeometry>
        </mxCell>
        <mxCell id="AFQ0ZIfKeyaH-kGczsP7-11" value="Enviar estado de orden&#xa;lista para ser entregada" style="text;spacingTop=-5;fontSize=13;align=center;verticalAlign=middle;points=[];fontFamily=Verdana;" vertex="1" parent="1">
          <mxGeometry x="651" y="507.5" width="170" height="52" as="geometry" />
        </mxCell>
        <mxCell id="AFQ0ZIfKeyaH-kGczsP7-12" value="" style="edgeStyle=none;endArrow=none;exitX=0.48;exitY=-0.049;exitDx=0;exitDy=0;exitPerimeter=0;fontSize=13;fontFamily=Verdana;" edge="1" parent="1" source="AFQ0ZIfKeyaH-kGczsP7-11">
          <mxGeometry width="100" height="100" relative="1" as="geometry">
            <mxPoint x="1052" y="498.4999999999998" as="sourcePoint" />
            <mxPoint x="712" y="481" as="targetPoint" />
          </mxGeometry>
        </mxCell>
        <mxCell id="AFQ0ZIfKeyaH-kGczsP7-13" value="Notificación al Mesero" style="text;spacingTop=-5;fontSize=13;align=center;verticalAlign=middle;points=[];fontStyle=1;fontFamily=Verdana;" vertex="1" parent="1">
          <mxGeometry x="795" y="464" width="183" height="38" as="geometry" />
        </mxCell>
        <mxCell id="AFQ0ZIfKeyaH-kGczsP7-15" value="Pago de Orden" style="whiteSpace=wrap;strokeWidth=2;fontSize=14;fontFamily=Verdana;fontStyle=1" vertex="1" parent="1">
          <mxGeometry x="744" y="171.99999999999994" width="120" height="60" as="geometry" />
        </mxCell>
        <mxCell id="AFQ0ZIfKeyaH-kGczsP7-16" value="" style="edgeStyle=none;endArrow=none;strokeWidth=2;fontSize=13;fontFamily=Verdana;exitX=-0.033;exitY=0.45;exitDx=0;exitDy=0;exitPerimeter=0;" edge="1" parent="1">
          <mxGeometry width="100" height="100" relative="1" as="geometry">
            <mxPoint x="999" y="273" as="sourcePoint" />
            <mxPoint x="824" y="268" as="targetPoint" />
          </mxGeometry>
        </mxCell>
        <mxCell id="AFQ0ZIfKeyaH-kGczsP7-19" value="Generar comprobante&#xa;de pago" style="text;spacingTop=-5;fontSize=13;align=center;verticalAlign=middle;points=[];fontFamily=Verdana;" vertex="1" parent="1">
          <mxGeometry x="864" y="305" width="159" height="42" as="geometry" />
        </mxCell>
        <mxCell id="AFQ0ZIfKeyaH-kGczsP7-20" value="" style="edgeStyle=none;endArrow=none;fontSize=13;fontFamily=Verdana;exitX=0.508;exitY=-0.012;exitDx=0;exitDy=0;exitPerimeter=0;" edge="1" parent="1" source="AFQ0ZIfKeyaH-kGczsP7-19">
          <mxGeometry width="100" height="100" relative="1" as="geometry">
            <mxPoint x="918" y="310" as="sourcePoint" />
            <mxPoint x="891" y="272" as="targetPoint" />
          </mxGeometry>
        </mxCell>
        <mxCell id="AFQ0ZIfKeyaH-kGczsP7-21" value="" style="edgeStyle=none;exitX=0.5;exitY=1;strokeWidth=3;fontSize=13;fontFamily=Verdana;exitDx=0;exitDy=0;" edge="1" parent="1" source="AFQ0ZIfKeyaH-kGczsP7-15">
          <mxGeometry width="100" height="100" relative="1" as="geometry">
            <mxPoint x="514" y="261" as="sourcePoint" />
            <mxPoint x="880" y="382" as="targetPoint" />
          </mxGeometry>
        </mxCell>
        <mxCell id="AFQ0ZIfKeyaH-kGczsP7-23" value="Procesar pago" style="text;spacingTop=-5;fontSize=13;align=center;verticalAlign=middle;points=[];fontStyle=1;fontFamily=Verdana;" vertex="1" parent="1">
          <mxGeometry x="1006" y="264" width="115" height="22" as="geometry" />
        </mxCell>
      </root>
    </mxGraphModel>
  </diagram>
</mxfile>
